/* XPM */
static char *result[] = {
/* columns rows colors chars-per-pixel */
"64 64 22 1 ",
"  c #C8800D",
". c #CA800C",
"X c #C8800E",
"o c #C9800E",
"O c #C9810E",
"+ c #CB820E",
"@ c #CE840E",
"# c #D0860E",
"$ c #D3870F",
"% c #D6890F",
"& c #D88B0F",
"* c #DB8C0F",
"= c #DE8E10",
"- c #E09010",
"; c #E39110",
": c #E59310",
"> c #E89511",
", c #EB9611",
"< c #ED9811",
"1 c #F09A11",
"2 c #F39C12",
"3 c None",
/* pixels */
"3333333333333333333333333333333333333333333333333333333333333333",
"3333333333333333333333333333333333333333333333333333333333333333",
"3333333333333333333333333333333333333333333333333333333333333333",
"3333333333333333333333333333333333333333333333333333333333333333",
"3333333333333333333333333333333333333333333333333333333333333333",
"3333333333333333333333333333333333333333333333333333333333333333",
"3333333333333333333333333333333333333333333333333333333333333333",
"3333333333333333333333333333333333333333333333333333333333333333",
"3333333333333333333333333333333333333333333333333333333333333333",
"3333333333333333333333333333333333333333333333333333333333333333",
"3333333333333333333333333333333333333333333333333333333333333333",
"3333333333333333333333333333333333333333333333333333333333333333",
"3333333333333333333333333333333333333333333333333333333333333333",
"3333333333333333333333333333333333333333333333333333333333333333",
"3333333333333333333333333333333333333333333333333333333333333333",
"3333333333333333333333333333333333333333333333333333333333333333",
"3333333333333333333333333333333333333333333333333333333333333333",
"3333333333333333333333333333333333333333333333333333333333333333",
"33333333333333333333333333333      33333333333333333333333333333",
"33333333333333333333333333XOOOOOOOOOOX33333333333333333333333333",
"333333333333333333333333XOO#=:>>>>:=#OOX333333333333333333333333",
"33333333333333333333333OO$>2222222222>$OO33333333333333333333333",
"3333333333333333333333OO=22222222222222=OO3333333333333333333333",
"333333333333333333333oO=2222222222222222=Oo333333333333333333333",
"33333333333333333333oO&22222,*$$$$&,22222&Oo33333333333333333333",
"33333333333333333333O@12221&OOOOOOOO$,2221@O33333333333333333333",
"3333333333333333333XO:2222$OOOOOOOOOO#2222:OX3333333333333333333",
"3333333333333333333O#2222*OOOO$::$OOOO*2222#O3333333333333333333",
"333333333333333333 O-222,OOOOO,22,OOOOO,222-O 333333333333333333",
"333333333333333333oO>222&OOOOO2222OOOOO&222>Oo333333333333333333",
"333333333333333333OO2222@OOOOO2222OOOOO@2222OO333333333333333333",
"333333333333333333OO2222OOOOOO2222OOOOOO2222OO333333333333333333",
"333333333333333333OO2222OOOOOO2222OOOOOO2222OO333333333333333333",
"333333333333333333OO2222+OOOOO2222OOOOO+2222OO333333333333333333",
"333333333333333333 O>222%OOOOO2222OOOOO%222>O 333333333333333333",
"333333333333333333 O-222:OOOOO<22<OOOOO:222-O 333333333333333333",
"3333333333333333333O$2222#OOOO*11*OOOO#2222$O3333333333333333333",
"3333333333333333333oO,222<+OOOOOOOOOO+<222,Oo3333333333333333333",
"33333333333333333333O$2222<%OOOOOOOO%<2222$O33333333333333333333",
"33333333333333333333oO=22222;$OOOO$;22222=Oo33333333333333333333",
"333333333333333333333OO;2222222222222222;OO333333333333333333333",
"333333333333333333333 OO&22222222222222&OO 333333333333333333333",
"33333333333333333333333OO%,2222222222,%OO33333333333333333333333",
"333333333333333333333333oOO%:122221:%OOo333333333333333333333333",
"3333333333333333333333333.OOOOOOOOOOOO.3333333333333333333333333",
"3333333333333333333333333333oOOOOOOo3333333333333333333333333333",
"3333333333333333333333333333333333333333333333333333333333333333",
"3333333333333333333333333333333333333333333333333333333333333333",
"3333333333333333333333333333333333333333333333333333333333333333",
"3333333333333333333333333333333333333333333333333333333333333333",
"3333333333333333333333333333333333333333333333333333333333333333",
"3333333333333333333333333333333333333333333333333333333333333333",
"3333333333333333333333333333333333333333333333333333333333333333",
"3333333333333333333333333333333333333333333333333333333333333333",
"3333333333333333333333333333333333333333333333333333333333333333",
"3333333333333333333333333333333333333333333333333333333333333333",
"3333333333333333333333333333333333333333333333333333333333333333",
"3333333333333333333333333333333333333333333333333333333333333333",
"3333333333333333333333333333333333333333333333333333333333333333",
"3333333333333333333333333333333333333333333333333333333333333333",
"3333333333333333333333333333333333333333333333333333333333333333",
"3333333333333333333333333333333333333333333333333333333333333333",
"3333333333333333333333333333333333333333333333333333333333333333",
"3333333333333333333333333333333333333333333333333333333333333333"
};
