/* XPM */
static char *_cc54d1658104c79e097cb220f2cc517gQOPmKRqXDpIoSIe[] = {
/* columns rows colors chars-per-pixel */
"64 64 145 2 ",
"   c None",
".  c gray20",
"X  c #363433",
"o  c #393633",
"O  c #3E3433",
"+  c #3D3734",
"@  c #493633",
"#  c #403934",
"$  c #433A34",
"%  c #473C35",
"&  c #4E3F36",
"*  c #603935",
"=  c #763C36",
"-  c #544236",
";  c #584437",
":  c #5B4537",
">  c #5E4737",
",  c #654A38",
"<  c #684B38",
"1  c #694B39",
"2  c #684C38",
"3  c #694C39",
"4  c #65543C",
"5  c #60583E",
"6  c #5C5E40",
"7  c #725540",
"8  c #765A44",
"9  c #7B5E48",
"0  c #695F52",
"q  c #586543",
"w  c #546B45",
"e  c #5A6C47",
"r  c #4C784A",
"t  c #487E4D",
"y  c #507148",
"u  c #56744A",
"i  c #7D6149",
"p  c #803B34",
"a  c #813D36",
"s  c #8D3D34",
"d  c #9B4737",
"f  c #AD4536",
"g  c #BA4539",
"h  c #C64335",
"j  c #CD4335",
"k  c #CE4335",
"l  c #C24639",
"z  c #D14436",
"x  c #D34536",
"c  c #D64637",
"v  c #DA4738",
"b  c #DB4A3B",
"n  c #DD4839",
"m  c #DE4939",
"M  c #DB543F",
"N  c #E34A3B",
"B  c #E74C3C",
"V  c #85674F",
"C  c #8B6F55",
"Z  c #8E7157",
"A  c #977A5E",
"S  c #CF5C42",
"D  c #E85543",
"F  c #EA5E4A",
"G  c #C46445",
"H  c #CC755E",
"J  c #EB6751",
"K  c #ED7159",
"L  c #EE7A60",
"P  c #3C9155",
"I  c #389757",
"U  c #2CAA5F",
"Y  c #30A45C",
"T  c #28B162",
"R  c #29B664",
"E  c #29B765",
"W  c #2ABB67",
"Q  c #2BBE69",
"!  c #35B56B",
"~  c #35BC6A",
"^  c #449C5C",
"/  c #5C955C",
"(  c #739C5D",
")  c #45BC6A",
"_  c #50B467",
"`  c #42BA75",
"'  c #50BF7F",
"]  c #67A460",
"[  c #77A76B",
"{  c #31C46D",
"}  c #39C46D",
"|  c #2ECC71",
" . c #48CE79",
".. c #8A8C56",
"X. c #A38557",
"o. c #A18366",
"O. c #A68B6B",
"+. c #AA8C6D",
"@. c #B49675",
"#. c #B49976",
"$. c #BD9F7C",
"%. c #81AA73",
"&. c #90B173",
"*. c #BBA07C",
"=. c #F18C6F",
"-. c #F39676",
";. c #F49F7D",
":. c #62D181",
">. c #6FD285",
",. c #78CE9C",
"<. c #C6A884",
"1. c #D0B18B",
"2. c #D0B58D",
"3. c #CFB691",
"4. c #D7B692",
"5. c #D7BD93",
"6. c #D9BB93",
"7. c #E8A781",
"8. c #F6A885",
"9. c #F7B18C",
"0. c #E1C59A",
"q. c #E2C49A",
"w. c #E6CA9E",
"e. c #EECC9E",
"r. c #FAC49B",
"t. c #E8CCA0",
"y. c #ECCDA2",
"u. c #FCCDA2",
"i. c #E4DDA9",
"p. c #F0D2A5",
"a. c #F2D5A7",
"s. c #F5D6A9",
"d. c #F5D7A9",
"f. c #FDD6A9",
"g. c #F1DEAD",
"h. c #FADBAD",
"j. c #FCDDAF",
"k. c #FFE0B1",
"l. c #AEE1C4",
"z. c #BBE6CD",
"x. c #C9EBD7",
"c. c #D6F0E1",
"v. c #E4F5EB",
"b. c #F1FAF5",
"n. c white",
/* pixels */
"                                                                                                                                ",
"                                                                                                                                ",
"                                                                                                                                ",
"                                                                                                                                ",
"                                                                                                                                ",
"                                                3 3 3 3 3 3 3 3 3 3 3 3 3 3 3 3 <                                               ",
"                                  < 3 3 3 3 3 3 3 3 3 3 3 3 3 3 3 3 3 3 3 3 3 3 3 3 3 3 3 3 <                                   ",
"                              < 3 3 3 5 q t t t P I I I I I I I I I I I I I I I t t t w 6 3 3 3 <                               ",
"                            3 3 5 r P Y T T T T T T T T T T T T T T T T T T T T T T T T U I t 5 3 3                             ",
"                          3 3 r U T T T T T T T T T T T T T T T T T T T T T T T T T T T T T T U t 3 3                           ",
"                        < 3 y T T T T T T T T T T T T T T T T T T T T T T T T T T T T T T T T T T y 3 <                         ",
"                        3 3 Y T T T T T T T T T T T T T T T T T T T T T T T T T T T T T T T T T T Y 3 3                         ",
"                        3 3 T T T T T T T T T T T T T T T T T T T T T T T T T T T T T T T T T T T T 3 3                         ",
"                        3 3 T T T T T T T T T T T T T ! ,.z.x.x.x.x.z.,.T T T T T T T T T T T T T T 3 3                         ",
"                        3 3 T T T T T T T T T T T T ,.v.n.n.n.n.n.n.n.n.c.' T T T T T T T T T T T T 3 3                         ",
"                        3 3 T T T T T T T T T T T ' b.n.n.n.n.n.n.n.n.n.n.v.' T T T T T T T T T T T 3 3                         ",
"                        3 3 T T T T T T T T T T ` b.n.n.n.n.n.n.n.n.n.n.n.n.c.! T T T T T T T T T T 3 3                         ",
"                        3 3 T T T T T T T T T T l.n.n.n.n.n.n.n.n.n.n.n.n.n.n.l.T T T T T T T T T T 3 3                         ",
"                        3 3 T T T T T T T T T T b.n.n.n.n.n.n.n.n.n.n.n.n.n.n.b.T T T T T T T T T T 3 3                         ",
"                        3 3 T T E E E E E Q Q Q Q Q Q Q Q Q Q Q Q Q Q Q Q Q Q Q Q Q Q W E E E E T T 3 3                         ",
"                        3 3 | | | | | | | | | | | | | | | | | | | | | | | | | | | | | | | | | | | | 3 3                         ",
"                        3 3 | | | | | | | | | | | | | | | | | | | | | | | | | | | | | | | | | | | | 3 3                         ",
"                        3 3 | | | | | | | | | | | | | | | | | | | | | | | | | | | | | | | | | | | | 3 3                         ",
"                        3 3 ~ | | | | | | | | | | | | | | | | | | | | | | | | | | | | | | | | | | ~ 3 3                         ",
"                        < 3 u | | | | | | | | | | | | | | | | | | | | | | | | | | | | | | | | | | u 3 <                         ",
"                          3 3 3 3 3 y.k.k.k.k.k.k.k.k.k.k.k.k.k.k.k.k.k.k.k.k.k.k.k.k.k.k.k.o.3 3 3 3 <                         ",
"                      < 3 3 3 3 3 +.k.k.k.k.k.k.k.k.k.k.k.k.k.k.k.k.k.k.k.k.k.k.k.k.k.k.k.k.y.3 3 3 3 3 <                       ",
"                    < 3 C #.*.3 V s.k.k.k.q.Z Z q.k.k.k.k.k.k.k.k.k.k.k.k.k.k.q.Z Z 6.k.k.k.k.@.3 *.#.C 3 <                     ",
"                    3 i 2.5.5.9 q.k.k.k.k.Z 3 3 Z k.k.k.k.k.k.k.k.k.k.k.k.k.k.Z 3 3 Z k.k.k.k.k.V 5.5.2.i 3                     ",
"                  < 3 *.5.5.5.s.k.k.k.k.k.3 3 3 3 k.k.k.k.k.k.k.k.k.k.k.k.k.k.3 3 3 3 k.k.k.k.k.s.5.5.5.*.3 <                   ",
"                  3 3 5.5.5.5.k.k.k.k.k.k.3 3 3 3 k.k.k.k.k.k.k.k.k.k.k.k.k.k.3 3 3 3 k.k.k.k.k.k.5.5.5.5.3 3                   ",
"                  3 3 5.5.5.5.k.k.k.k.k.k.V 3 3 V k.k.k.k.k.t.q.q.w.j.k.k.k.k.V 3 3 V k.k.k.k.k.j.5.5.5.5.3 3                   ",
"                  < 3 *.5.5.5.h.k.k.k.k.k.q.7 7 q.k.k.k.k.p.5.5.5.5.t.k.k.k.k.q.7 3 6.k.k.k.k.k.s.5.5.5.*.3 <                   ",
"                    3 i 2.5.5.s.k.k.k.k.k.k.k.k.k.k.k.y.$.5.5.5.5.5.5.$.q.k.k.k.k.k.k.k.k.k.k.k.s.5.5.2.i 3                     ",
"                    < 3 8 *.5.p.k.k.k.k.k.k.k.k.k.k.1.3 3 O.5.5.5.5.#.3 3 1.k.k.k.k.k.k.k.k.k.k.a.5.*.8 3 <                     ",
"                      3 3 3 3 @.k.k.k.k.k.k.k.k.k.6.3 3 3 3 3 3 3 3 3 3 3 3 <.k.k.k.k.k.k.k.k.k.@.3 3 3 3                       ",
"                          < 3 Z k.k.k.k.k.k.k.k.k.9 3 3 3 3 3 3 3 3 3 3 3 3 7 k.k.k.k.k.k.k.k.k.@.3 <                           ",
"                            3 V k.k.k.k.k.k.k.k.k.7 3 3 3 3 3 3 3 3 3 3 3 3 7 k.k.k.k.k.k.k.k.k.9 3                             ",
"                          3 3 3 q.k.k.k.k.k.k.k.k.y.@.Z 3 3 3 3 3 3 3 3 Z @.y.k.k.k.k.k.k.k.k.q.3 3 3                           ",
"                        3 3 e ^ / u.k.k.k.k.k.k.k.k.k.k.k.k.k.k.k.k.k.k.k.k.k.k.k.k.k.k.k.k.u.[ ^ e 3 3                         ",
"                      < 3 e | | ..D K K K K K K &.:.:.:.:.:.:.:.:.:.:.:.:.:.:.&.K K K K K K X.| | | e 3 <                       ",
"                      3 4 { | | S B B B B B B B S } | | | | | | | | | | | | } S B B B B B ..| | | | { 4 3                       ",
"                    3 3 ^ | | ) B B B B B B B B B S _ | | | | | | | | | | _ S B B B B M (  .:.:.| | | ^ 3 3                     ",
"                    3 3 { | >.7.B B B B B B B B B B B G ] } | | | | } ] G B B B B B J e.k.k.k.k.g.>.| { 3 3                     ",
"                    3 3 | >.k.-.B B B B B B B B B B B B B B B B B B B B B B B B B B u.k.k.k.k.k.k.k.>.| 3 3                     ",
"                    < 3 { i.k.-.B B B B B B B B B B B B B B B B B B B B B B B B B B k.k.k.k.k.k.k.k.i.{ 3 <                     ",
"                    3 3 %.k.k.-.B B B B B B B B B B B B N v x x x x v N B B B B B B k.k.k.k.k.k.k.k.k.%.3 3                     ",
"                      3 @.k.k.-.B B B B B B B B B B B v j j j j j j j j v B B B B B r.k.k.k.k.k.k.k.k.@.3                       ",
"                      3 A k.k.-.B B B B B B B B B B n j j j j j j j j j j n B B B B ;.k.k.k.k.k.k.k.k.A 3                       ",
"                      3 V k.k.9.B B b a * * * * = l j j j j j j j j j j j j N B B B F f.k.k.k.k.k.k.k.V 3                       ",
"                      3 3 y.k.r.B g . . . . . . . . p j j j j j j j j j j j x B B B B L k.k.k.k.k.k.y.3 3                       ",
"                      < 3 Z s.k.H O . . . . . . . . . s f d d d d d d f h j j n B B B B 8.k.k.k.k.s.Z 3 <                       ",
"                        3 3 Z 1.0 . . . . . . . . . . X 3 3 3 3 3 3 3 3 @ p j c B B B B B =.4.3.1.Z 3 3                         ",
"                          < 3 3 . . . . . . . . . . . . : 3         3 : . . . . . . . . . . . . 3 3 <                           ",
"                            3 3 . . . . . . . . . . . . : 3         3 : . . . . . . . . . . . . 3 3                             ",
"                            3 3 & . . . . . . . . . . # , 3         3 3 + . . . . . . . . . . - 3 3                             ",
"                              3 3 > & # o . . . X % - 3 3 <         < 3 3 : % # . . . . o & > 3 3                               ",
"                                3 3 3 3 3 3 3 3 3 3 3 3                 3 3 3 3 3 3 3 3 3 3 3 3                                 ",
"                                    < 3 3 3 3 3 3 3                         3 3 3 3 3 3 3 3                                     ",
"                                                                                                                                ",
"                                                                                                                                ",
"                                                                                                                                ",
"                                                                                                                                ",
"                                                                                                                                "
};
