/* XPM */
static char *_f80cecd1749460d8f105e4cd98dc8902JNtNyM6jhGjJBe3[] = {
/* columns rows colors chars-per-pixel */
"64 64 146 2 ",
"   c None",
".  c gray20",
"X  c #363433",
"o  c #393633",
"O  c #3E3433",
"+  c #3D3734",
"@  c #493633",
"#  c #403934",
"$  c #433A34",
"%  c #473C35",
"&  c #4E3F36",
"*  c #603935",
"=  c #763C36",
"-  c #544236",
";  c #584437",
":  c #5B4537",
">  c #5E4737",
",  c #654A38",
"<  c #684B38",
"1  c #694B39",
"2  c #684C38",
"3  c #694C39",
"4  c #64523B",
"5  c #65543C",
"6  c #60583E",
"7  c #5C5E40",
"8  c #725540",
"9  c #765A44",
"0  c #7B5E48",
"q  c #695F52",
"w  c #586543",
"e  c #546B45",
"r  c #5A6C47",
"t  c #4C784A",
"y  c #487E4D",
"u  c #507148",
"i  c #56744A",
"p  c #7D6149",
"a  c #803B34",
"s  c #813D36",
"d  c #8D3D34",
"f  c #9B4737",
"g  c #AD4536",
"h  c #BA4539",
"j  c #C64335",
"k  c #CD4335",
"l  c #CE4335",
"z  c #C24639",
"x  c #D14436",
"c  c #D34536",
"v  c #D64637",
"b  c #DA4738",
"n  c #D0483A",
"m  c #DD4839",
"M  c #DE4939",
"N  c #DB543F",
"B  c #E34A3B",
"V  c #E74C3C",
"C  c #85674F",
"Z  c #8B6F55",
"A  c #8E7157",
"S  c #977A5E",
"D  c #A17C4F",
"F  c #CF5C42",
"G  c #E85543",
"H  c #EA5E4A",
"J  c #C46445",
"K  c #CB6C57",
"L  c #EB6751",
"P  c #ED7159",
"I  c #EE7A60",
"U  c #3C9155",
"Y  c #389757",
"T  c #2CAA5F",
"R  c #30A45C",
"E  c #28B162",
"W  c #29B664",
"Q  c #29B765",
"!  c #2ABB67",
"~  c #2BBE69",
"^  c #35B56B",
"/  c #35BC6A",
"(  c #449C5C",
")  c #5C955C",
"_  c #739C5D",
"`  c #45BC6A",
"'  c #50B467",
"]  c #42BA75",
"[  c #50BF7F",
"{  c #67A460",
"}  c #31C46D",
"|  c #39C46D",
" . c #2ECC71",
".. c #48CE79",
"X. c #8A8C56",
"o. c #A38557",
"O. c #829F68",
"+. c #A18366",
"@. c #A68B6B",
"#. c #AA8C6D",
"$. c #B49675",
"%. c #B49976",
"&. c #BD9F7C",
"*. c #81AA73",
"=. c #90B173",
"-. c #BBA07C",
";. c #E48B6B",
":. c #F18C6F",
">. c #F39676",
",. c #F49F7D",
"<. c #62D181",
"1. c #6FD285",
"2. c #78CE9C",
"3. c #C6A884",
"4. c #D0B18B",
"5. c #D0B58D",
"6. c #CFB691",
"7. c #D7B692",
"8. c #D7BD93",
"9. c #D9BB93",
"0. c #F6A885",
"q. c #E1C59A",
"w. c #E2C49A",
"e. c #E6CA9E",
"r. c #EECC9E",
"t. c #FAC49B",
"y. c #E8CCA0",
"u. c #ECCDA2",
"i. c #FCCDA2",
"p. c #E4DDA9",
"a. c #F0D2A5",
"s. c #F2D5A7",
"d. c #F5D6A9",
"f. c #F5D7A9",
"g. c #FDD6A9",
"h. c #F1DEAD",
"j. c #FADBAD",
"k. c #FCDDAF",
"l. c #FFE0B1",
"z. c #AEE1C4",
"x. c #BBE6CD",
"c. c #C9EBD7",
"v. c #D6F0E1",
"b. c #E4F5EB",
"n. c #F1FAF5",
"m. c white",
/* pixels */
"                                                                                                                                ",
"                                                                                                                                ",
"                                                                                                                                ",
"                                                                                                                                ",
"                                                                                                                                ",
"                                                3 3 3 3 3 3 3 3 3 3 3 3 3 3 3 3 <                                               ",
"                                  < 3 3 3 3 3 3 3 3 3 3 3 3 3 3 3 3 3 3 3 3 3 3 3 3 3 3 3 3 <                                   ",
"                              < 3 3 3 6 w y y y U Y Y Y Y Y Y Y Y Y Y Y Y Y Y Y y y y e 7 3 3 3 <                               ",
"                            3 3 4 t U R E E E E E E E E E E E E E E E E E E E E E E E E T Y y 6 3 3                             ",
"                          3 3 u T E E E E E E E E E E E E E E E E E E E E E E E E E E E E E E T y 3 3                           ",
"                        < 3 u E E E E E E E E E E E E E E E E E E E E E E E E E E E E E E E E E E u 3 <                         ",
"                        3 3 R E E E E E E E E E E E E E E E E E E E E E E E E E E E E E E E E E E R 3 3                         ",
"                        3 3 E E E E E E E E E E E E E E E E E E E E E E E E E E E E E E E E E E E E 3 3                         ",
"                        3 3 E E E E E E E E E E E E E ^ 2.x.c.c.c.c.x.2.E E E E E E E E E E E E E E 3 3                         ",
"                        3 3 E E E E E E E E E E E E 2.b.m.m.m.m.m.m.m.m.v.[ E E E E E E E E E E E E 3 3                         ",
"                        3 3 E E E E E E E E E E E [ n.m.m.m.m.m.m.m.m.m.m.b.[ E E E E E E E E E E E 3 3                         ",
"                        3 3 E E E E E E E E E E ] n.m.m.m.m.m.m.m.m.m.m.m.m.v.^ E E E E E E E E E E 3 3                         ",
"                        3 3 E E E E E E E E E E z.m.m.m.m.m.m.m.m.m.m.m.m.m.m.z.E E E E E E E E E E 3 3                         ",
"                        3 3 E E E E E E E E E E n.m.m.m.m.m.m.m.m.m.m.m.m.m.m.n.E E E E E E E E E E 3 3                         ",
"                        3 3 E E Q Q Q Q Q ~ ~ ~ ~ ~ ~ ~ ~ ~ ~ ~ ~ ~ ~ ~ ~ ~ ~ ~ ~ ~ ~ ! Q Q Q Q E E 3 3                         ",
"                        3 3  . . . . . . . . . . . . . . . . . . . . . . . . . . . . . . . . . . . .3 3                         ",
"                        3 3  . . . . . . . . . . . . . . . . . . . . . . . . . . . . . . . . . . . .3 3                         ",
"                        3 3  . . . . . . . . . . . . . . . . . . . . . . . . . . . . . . . . . . . .3 3                         ",
"                        3 3 /  . . . . . . . . . . . . . . . . . . . . . . . . . . . . . . . . . ./ 3 3                         ",
"                        < 3 i  . . . . . . . . . . . . . . . . . . . . . . . . . . . . . . . . . .i 3 <                         ",
"                          3 3 3 3 3 u.l.l.l.l.l.l.l.l.l.l.l.l.l.l.l.l.l.l.l.l.l.l.l.l.l.l.l.+.3 3 3 3 <                         ",
"                      < 3 3 3 3 3 #.l.l.l.l.l.l.l.l.l.l.l.l.l.l.l.l.l.l.l.l.l.l.l.l.l.l.l.l.u.3 3 3 3 3 <                       ",
"                    < 3 Z %.-.3 C d.l.l.l.w.A A w.l.l.l.l.l.l.l.l.l.l.l.l.l.l.w.A A 9.l.l.l.l.$.3 -.%.Z 3 <                     ",
"                    3 p 5.8.8.0 w.l.l.l.l.A 3 3 A l.l.l.l.l.l.l.l.l.l.l.l.l.l.A 3 3 A l.l.l.l.l.C 8.8.5.p 3                     ",
"                  < 3 -.8.8.8.d.l.l.l.l.l.3 3 3 3 l.l.l.l.l.l.l.l.l.l.l.l.l.l.3 3 3 3 l.l.l.l.l.d.8.8.8.-.3 <                   ",
"                  3 3 8.8.8.8.l.l.l.l.l.l.3 3 3 3 l.l.l.l.l.l.l.l.l.l.l.l.l.l.3 3 3 3 l.l.l.l.l.l.8.8.8.8.3 3                   ",
"                  3 3 8.8.8.8.l.l.l.l.l.l.C 3 3 C l.l.l.l.l.y.w.w.e.k.l.l.l.l.C 3 3 C l.l.l.l.l.k.8.8.8.8.3 3                   ",
"                  < 3 -.8.8.8.j.l.l.l.l.l.w.8 8 w.l.l.l.l.a.8.8.8.8.y.l.l.l.l.w.8 3 9.l.l.l.l.l.d.8.8.8.-.3 <                   ",
"                    3 p 5.8.8.d.l.l.l.l.l.l.l.l.l.l.l.u.&.8.8.8.8.8.8.&.w.l.l.l.l.l.l.l.l.l.l.l.d.8.8.5.p 3                     ",
"                    < 3 9 -.8.a.l.l.l.l.l.l.l.l.l.l.4.3 3 @.8.8.8.8.%.3 3 4.l.l.l.l.l.l.l.l.l.l.s.8.-.9 3 <                     ",
"                      3 3 3 3 $.l.l.l.l.l.l.l.l.l.9.3 3 3 3 3 3 3 3 3 3 3 3 3.l.l.l.l.l.l.l.l.l.$.3 3 3 3                       ",
"                          < 3 A l.l.l.l.l.l.l.l.l.0 3 3 3 3 3 3 3 3 3 3 3 3 8 l.l.l.l.l.l.l.l.l.$.3 <                           ",
"                            3 C l.l.l.l.l.l.l.l.l.8 3 3 3 3 3 3 3 3 3 3 3 3 8 l.l.l.l.l.l.l.l.l.0 3                             ",
"                          3 3 3 w.l.l.l.l.l.l.l.l.u.$.A 3 3 3 3 3 3 3 3 A $.u.l.l.l.l.l.l.l.l.w.3 3 3                           ",
"                        3 3 r ( ) i.l.l.l.l.l.l.l.l.l.l.l.l.l.l.l.l.l.l.l.l.l.l.l.l.l.l.l.l.i.O.( r 3 3                         ",
"                      < 3 r  . . .o.P P P P P P =.<.<.<.<.<.<.<.<.<.<.<.<.<.<.=.P P P P P P G D  . .r 3 <                       ",
"                      3 5 }  . . . .X.V V V V V F |  . . . . . . . . . . . .| F V V V V V V V V `  .} 5 3                       ",
"                    3 3 (  . . .<.<..._ N V V V V F '  . . . . . . . . . .' F V V V V V V V V V _  . .( 3 3                     ",
"                    3 3 }  .1.h.l.l.l.l.r.L V V V V V J { |  . . . .| { J V V V V V V V V V V V ;.1. .} 3 3                     ",
"                    3 3  .1.l.l.l.l.l.l.l.i.V V V V V V V V V V V V V V V V V V V V V V V V V V P l.1. .3 3                     ",
"                    < 3 } p.l.l.l.l.l.l.l.l.V V V V V V V V V V V V V V V V V V V V V V V V V V P l.p.} 3 <                     ",
"                    3 3 *.l.l.l.l.l.l.l.l.l.V V V V V V B b x x x x b B V V V V V V V V V V V V P l.l.*.3 3                     ",
"                      3 $.l.l.l.l.l.l.l.l.t.V V V V V b k k k k k k k k b V V V V V V V V V V V P l.l.$.3                       ",
"                      3 S l.l.l.l.l.l.l.l.,.V V V V M k k k k k k k k k k M V V V V V V V V V V I l.l.S 3                       ",
"                      3 C l.l.l.l.l.l.l.g.H V V V B k k k k k k k k k k k k z = * * * * s n V V >.l.l.C 3                       ",
"                      3 3 u.l.l.l.l.l.l.I V V V V x k k k k k k k k k k k a . . . . . . . . h V i.l.u.3 3                       ",
"                      < 3 A d.l.l.l.l.0.V V V V M k k j g f f f f f f g d . . . . . . . . . O K l.d.A 3 <                       ",
"                        3 3 A 4.6.7.:.V V V V V v k a @ 3 3 3 3 3 3 3 3 X . . . . . . . . . . q 4.A 3 3                         ",
"                          < 3 3 . . . . . . . . . . . . : 3         3 : . . . . . . . . . . . . 3 3 <                           ",
"                            3 3 . . . . . . . . . . . . : 3         3 : . . . . . . . . . . . . 3 3                             ",
"                            3 3 & . . . . . . . . . . # , 3         3 3 + . . . . . . . . . . - 3 3                             ",
"                              3 3 > & # o . . . X % - 3 3 <         < 3 3 : % # . . . . o & > 3 3                               ",
"                                3 3 3 3 3 3 3 3 3 3 3 3                 3 3 3 3 3 3 3 3 3 3 3 3                                 ",
"                                    < 3 3 3 3 3 3 3                         3 3 3 3 3 3 3 3                                     ",
"                                                                                                                                ",
"                                                                                                                                ",
"                                                                                                                                ",
"                                                                                                                                ",
"                                                                                                                                "
};
