/* XPM */
static char *result[] = {
/* columns rows colors chars-per-pixel */
"64 64 27 1 ",
"  c #24A65B",
". c #24A75B",
"X c #24A85C",
"o c #25A85C",
"O c #25A95D",
"+ c #25AA5D",
"@ c #25AA5E",
"# c #26AB5E",
"$ c #26AC5E",
"% c #26AC5F",
"& c #26AD5F",
"* c #27AE60",
"= c #27AF61",
"- c #27B061",
"; c #28B162",
": c #28B262",
"> c #28B363",
", c #28B463",
"< c #28B564",
"1 c #28B664",
"2 c #29B765",
"3 c #29B865",
"4 c #29B966",
"5 c #29BA66",
"6 c #29BB67",
"7 c #29BC67",
"8 c #2ABD68",
/* pixels */
";;;288888885;;;*                         #;;;+             X-;;;",
";:58888888886;;;                         *;;#               O;;;",
";5888888888885;;#                       o;;=                 &;;",
"588888888888882;-                       *;;$                 O;;",
"888888888888888,;&                     $;;;#                 o;5",
"8888888888888886;;%                   +;;;;=                 %<8",
"88888888888888881;;@                 +;;;;;;@               X;58",
"88888888888888882;;;+               X;;<53,;-X             .=;38",
"88888888888888881;;;;$             O;;388885;=             *;;,8",
"8888888888888888:;;;;;%           +;;48888886;*.          &;;;;4",
"688888888888888<;;;;;;;&         #;;3888888885;=X        *;;;;;;",
">8888888888888<;;;;;;;;;*       %;;288888888883;-X      *;;;;;;;",
";<88888888887,;;;;;;;;;;;;@   +-;;:888888888888<;-+   X*;*+ooo$;",
"-;1888888887:;;;;;;;;;;;;;;;;;;;;;>8888888888882;;;=**;;#       ",
".*;38888886:;;=o  o;;;;;;;;;;;;;;;;588888888888:;;;;;;;@        ",
"  *;278883;;;$     +;;;;;;;;;;;;;;;,88888888881;;;;;;;+         ",
"   &;;,,;;;;@       #;;;;;;;;;;;;;;;<888888882;;;;;;-O          ",
"    *;;;;;;X         &;;;;;;;;;;;;;;;<8888882;;;;;;;+           ",
"     *;;;;$          .-;;;;;;;*###*;;;<88882;;;;;;;+            ",
"      *;;;o           %;;;;;=.     X*;;,44,;;;;;;;+             ",
"       *;;O           O;;;;%        X=;;;;;;;;;;;+              ",
"       .-;*           O;;-+           *;;;;;;;;;$               ",
"        o;;$         X-;=o             *;;;;;;;*                ",
"         *;;X       O-;=.               *;;;;;;o                ",
"         +;;=      #;;*.                 *;;;;=                 ",
"         o;;;*.  o*;;*                   .-;;;*                 ",
"         O;;;;-*=;;;=                     o;;;*                 ",
"         %;;;;;;;;;-X                      @;;;.                ",
"        X;;;;;;;;;;@                        *;;&                ",
"        *;;;;;;;;;=                         X;;;+               ",
"       &;;;;;;;;;;$                          &;;;X              ",
"      %;;;;;;;;;;;#                          #;;;-X             ",
"     $;;;;;;;;;;;;*                          #;;;;-.            ",
"    +;;;;;;;;;;;;;;X                         %;;;;;*            ",
"   $;;;;;;;=*=;;;;;*                        .;;;;;;;=X          ",
"  %;;;;;;;O   X#-;;;@                       *;;;;;;;;-X         ",
" &;;;;;;;+      .*;;-o                     %;;;;;;;;;;-O        ",
"*;;;;;;;#         $;;=                    #;;;;,4552;;;;+       ",
";;;;;;;*           @;;*                  @;;;;<788885;;;;*o   #;",
";;;;;;=             +;;%                +;;;;<88888885;;;;;;;;;;",
";;;;;;o              $;;%              #;;;;<8888888885;;;;;;;;;",
";;;;;$                *;;%            %;;;;1888888888886;;;;;;;;",
";;;;-                 o;;;%          *;;;;<88888888888885;;;;;;;",
";;;;$                 O;;;;%.      O-;;;;,8888888888888885;;;;;;",
";;;;#                 %;;;;;-O   +*;;;;;;688888888888888881;;;;;",
";;;;%                .;;;;;;;;;;;;;;;;;;<888888888888888886;;;;;",
";;;;;X               *;;;;;;;;;;;;;;;;;;2888888888888888888;;;;;",
";;;;;-X             @;;;;;;;;;;;;;;;;;;;,888888888888888885;;;;;",
";;;;;;-X           X;;;;;;;;;;;;;;;;;;;;;58888888888888888,;;;;;",
";;;;;;;;O         X-;;;;;;;;;;;;;;;;;;;;;;6888888888888881;;;:,;",
"<;;;;;;;;&        *;;;;;;;;;;;;;;;;;;;;;;;;78888888888882;;;2888",
"82;;;;;;;;=X     *;;;;;;;;$ooo@-;;;;;;;;;;;:788888888882;;;38888",
"883;;;;;;;;;%+oO-;;;;;;;-       *;;;;;;;;;;;>7888888883;;;388888",
"8883;;;;;;;;;;;;;;;;;;;*         %;;;;;;;;;;;:58888881;;;3888888",
"88882;;;;;;;;;;;;;;;;;&           #;;;;;;;;;;;;58888<;;;28888888",
"88885;;;;;;;;;;;;;;;;%             +;;;;;;;;;;;;,21;;;;;58888888",
"88885;;;;;;;;;;;;;;;%               +;;;;;;;;;;;;;;;;;;;58888888",
"88882;;;;;;;;;;;;;;%                 +;;;;;;;;;;;;;;;;;;28888888",
"8883;;;;;;;;;;;;;;*                   %;;;;;;;;;;;;;;;;;;3888888",
"883;;;;;;;;;;;;;;-                     *;;;;;;;;;;+   o=;;388888",
"81;;;;;;;;;;;;;;;o                      -;;;;;;;;+     X-;;28888",
"<;;;;;;;;;;;;;;;$                       O;;;;;;-o       .*;;<888",
";;;;;,3552:;;;;;.                        =;;;;-X          *;;;,;",
";;;;,788886;;;;*                         #;;;;O            -;;;;"
};
