/* XPM */
static char *_1c779b924b845a9b0a24c58230831dddrZ3g4zSuLMwSWxZ[] = {
/* columns rows colors chars-per-pixel */
"64 64 116 2 ",
"   c None",
".  c #323232",
"X  c gray20",
"o  c #3E3433",
"O  c #493634",
"+  c #603935",
"@  c #6B3A35",
"#  c #684B38",
"$  c #694B39",
"%  c #684C38",
"&  c #694C39",
"*  c #725540",
"=  c #7B5E48",
"-  c #5A6C47",
";  c #8D3F37",
":  c #984138",
">  c #BA4539",
",  c #C2473A",
"<  c #C5473A",
"1  c #D94A3B",
"2  c #DB543F",
"3  c #E64B3B",
"4  c #E74C3C",
"5  c #85674F",
"6  c #8E7157",
"7  c #977A5E",
"8  c #B86C49",
"9  c #AD744C",
"0  c #A17C4F",
"q  c #CF5C42",
"w  c #E85543",
"e  c #E95A47",
"r  c #EA5E4A",
"t  c #DF6F55",
"y  c #EB6751",
"u  c #ED7159",
"i  c #E1795C",
"p  c #3CAC63",
"a  c #27B061",
"s  c #27B062",
"d  c #27B162",
"f  c #28B061",
"g  c #28B062",
"h  c #28B162",
"j  c #28B262",
"k  c #29B765",
"l  c #29B966",
"z  c #2ABB67",
"x  c #2ABC68",
"c  c #2BBE69",
"v  c #35B56B",
"b  c #4F8451",
"n  c #4B8C55",
"m  c #449C5C",
"M  c #76875D",
"N  c #7E9459",
"B  c #739C5D",
"V  c #40A45F",
"C  c #5CAC63",
"Z  c #67A460",
"A  c #2BC06A",
"S  c #2BC16B",
"D  c #2CC36C",
"F  c #2CC46C",
"G  c #2CC56D",
"H  c #2CC66E",
"J  c #2DC86F",
"K  c #2DCA70",
"L  c #2ECB70",
"P  c #2DCC70",
"I  c #2ECC70",
"U  c #2ECC71",
"Y  c #3BCD75",
"T  c #48CE79",
"R  c #55CF7D",
"E  c #57D07D",
"W  c #6DC97D",
"Q  c #968453",
"!  c #A18366",
"~  c #AA8C6D",
"^  c #B49675",
"/  c #BD9F7C",
"(  c #9CA970",
")  c #F08367",
"_  c #F18C6F",
"`  c #F49F7D",
"'  c #5DC488",
"]  c #5DC489",
"[  c #62D181",
"{  c #6FD285",
"}  c #78CE9C",
"|  c #B9BE87",
" . c #C6A884",
".. c #D0B18B",
"X. c #D9BB93",
"o. c #F6A885",
"O. c #F7B18C",
"+. c #F9BB93",
"@. c #89D48D",
"#. c #96D691",
"$. c #B0D899",
"%. c #BDD99D",
"&. c #93D8B0",
"*. c #E2C49A",
"=. c #CADBA1",
"-. c #D7DCA5",
";. c #ECCDA2",
":. c #E4DDA9",
">. c #F5D6A9",
",. c #FDD6A9",
"<. c #FFE0B0",
"1. c #FFE0B1",
"2. c #AEE1C4",
"3. c #BBE6CD",
"4. c #CAF2DB",
"5. c white",
/* pixels */
"                                                                                                                                ",
"                                                                                                                                ",
"                                                                                                                                ",
"                                                                                                                                ",
"                                                                                                                                ",
"                                                                                                                                ",
"                                                                                                                                ",
"                                                                                                                                ",
"                                          a h h h h h h h h h h h h h h h h h h h h h h                                         ",
"                                      h h h h h h h h h h h h h h h h h h h h h h h h h h h h                                   ",
"                                      h h h h h h h h h h h h h h h h h h h h h h h h h h h h h a                               ",
"                                    a h h h h h h h h h h h h h h h h h h h h h h h h h h h h h h a                             ",
"                                    ] ] v h h h h h h h h h h h h h h h h h h h h h h h h h h h h h h                           ",
"                                    5.5.5.2.] h h h h h h h h h h h h h h h h h h h h h h h h h h h h h                         ",
"                                    5.5.5.5.5.&.h h h h h h h h h h h h h h h h h h h h h h h h h h h h h                       ",
"                                    5.5.5.5.5.5.} h h h h h h h h h h h h h h h h h h h h h h h h h h h h                       ",
"                                    5.5.5.5.5.5.5.] h h h h h h h h h h h h h h h h h h h h h h h h h h h a                     ",
"                                    5.5.5.5.5.5.5.3.h h h h h h h h h h h h h h h h h h h h h h h h h h h h                     ",
"                                    4.4.4.4.4.4.4.4.h h h h h h h h h h h h h h h h h h h h h h h h h h h h                     ",
"                          U U U U U U U U U U U U U U U U U G G S c c k k h h h h h h h h h h h h h h h h h                     ",
"                      U U U U U U U U U U U U U U U U U U U U U U U U U U U L G S l k h h h h h h h h h h h                     ",
"                    U U U U U U U U U U U U U U U U U U U U U U U U U U U U U U U U U U J D l k h h h h h h                     ",
"                    L U U U U U U U U U U U U U U U U U U U U U U U U U U U U U U U U U U U U U U G c l h h                     ",
"                          U U U U U U U U U U U U U U U U U U U U U U U U U U U U U U U U U U U U U U U J G                     ",
"                                      1.1.-.=.=.=.$.#.#.#.@.[ [ [ R U U U U U U U U U U U U U U U U U U U U                     ",
"                                      1.1.1.1.1.1.1.1.1.1.1.1.1.1.1.1.1.1.1.M - - - b n n n V p p p p p m                       ",
"                                      1.1.1.1.1.1.1.1.1.1.1.1.1.1.1.1.1.1.1.~ & & & & & & & & & & & & & &                       ",
"                                      1.1.1.1.1.1.1.1.1. .& * *.1.1.1.1.1.1.;.& & & & & & & & & & & & & &                       ",
"                                      1.1.1.1.1.1.1.1.1.= & & 6 1.1.1.1.1.1.1.^ X.1.1.1.X.5 & & & & & & &                       ",
"                                      1.1.1.1.1.1.1.1.1.& & & & 1.1.1.1.1.1.1.1.1.1.1.1.1.;.* & & & & & &                       ",
"                                      1.1.1.1.1.1.1.1.1.& & & & 1.1.1.1.1.1.1.1.1.1.1.1.1.1.X.& & & & & &                       ",
"                                    1.1.1.1.1.1.1.1.1.1.5 & & 7 1.1.1.1.1.1.1.1.1.1.1.1.1.1.1.& & & & & &                       ",
"                                  1.1.1.1.1.1.1.1.1.1.1.X.& = >.1.1.1.1.1.1.1.1.1.1.1.1.1.1.1.& & & & & $                       ",
"                                1.1.1.*.7 * 6 6 7 / ;.1.1.1.1.1.1.1.1.1.1.1.1.1.1.1.1.1.1.1. .& & & & & &                       ",
"                                  1.1.= & & & & & & & ..1.1.1.1.1.1.1.1.1.1.1.1.1.1.1.1.1.;.* & & & & & $                       ",
"                                      & & & & & & & & & X.1.1.1.1.1.1.1.1.1.1.1.1.1.1.1.1.1.X.! * & & &                         ",
"                                      & & & & & & & & & = 1.1.1.1.1.1.1.1.1.1.1.1.1.1.1.1.1.1.1.1.X.^ ^                         ",
"                                      & & & & & & & & & * 1.1.1.1.1.1.1.1.1.1.1.1.1.1.1.1.1.1.1.1.1.1.1.                        ",
"                                      & & & & & & & 6 ^ ;.1.1.1.1.1.1.1.1.1.1.1.1.1.1.1.1.1.1.1.1.1.1.1.                        ",
"                                        E :.1.1.1.1.1.1.1.1.1.1.1.1.1.1.1.1.1.1.1.1.1.1.1.1.1.1.1.1.1.                          ",
"                                        U Y [ [ [ [ [ [ [ [ [ ( u i W [ [ [ [ [ [ [ W u u u u u u u e                           ",
"                                      U U U U U U U U U U U Z 2 4 B [ { #.#.[ U U U U 0 4 4 4 4 4 4 4                           ",
"                                      U U U U U U U U U U Q 4 4 t :.1.1.1.1.1.$.Y U U C 4 4 4 4 4 4 4                           ",
"                                      U U U U U U U U B q 4 4 4 +.1.1.1.1.1.1.1.%.U U C 4 4 4 4 4 4 4 3                         ",
"                                      U U U U C N 9 4 4 4 4 4 4 1.1.1.1.1.1.1.1.1.T U B 4 4 4 4 4 4 4 4                         ",
"                                      4 4 4 4 4 4 4 4 4 4 4 4 4 1.1.1.1.1.1.1.1.1.@.U 8 4 4 4 4 4 4 4 4                         ",
"                                      4 4 4 4 4 4 4 4 4 4 4 4 4 O.1.1.1.1.1.1.1.1.#.C 4 4 4 4 4 4 4 4 4                         ",
"                                    , 4 4 4 4 4 4 4 4 4 4 4 4 4 u 1.1.1.1.1.1.1.1.| 2 4 4 4 4 4 4 4 4 1                         ",
"                                X X ; 4 4 4 4 4 4 4 4 4 4 4 4 4 4 O.1.1.1.1.1.1.1._ 4 4 4 4 4 4 4 4 4 > X                       ",
"                              X X X + 4 4 4 4 4 4 4 4 4 4 4 4 4 4 r 1.1.1.1.1.1.,.w 4 4 4 4 4 4 4 4 4 ; X X                     ",
"                              X X X O 4 4 4 4 4 4 4 4 4 4 4 4 4 4 4 ) ,.1.1.1.,.u 4 4 4 4 4 4 4 4 4 4 @ X X X                   ",
"                              X X X X : 4 4 4 4 4 4 4 4 4 4 4 4 4 4 4 r ` +.o.y 4 4 4 4 4 4 4 4 4 4 < o X X X                   ",
"                                X X X o : 4 4 4 4 4 4 4 4 4 4 4 4 4 4 4 4 4 4 4 4 4 4 4 4 4 4 4 4 < O X X X                     ",
"                                X X X X X X X X X X                                   X X X X X X X X X X                       ",
"                                    X X X X X X X X                                   X X X X X X X X X                         ",
"                                      X X X X X X X                                   X X X X X X X X                           ",
"                                          X X X X                                       X X X X X                               ",
"                                                                                                                                ",
"                                                                                                                                ",
"                                                                                                                                ",
"                                                                                                                                ",
"                                                                                                                                ",
"                                                                                                                                ",
"                                                                                                                                "
};
