/* XPM */
static char *_0bd7aa887a4459ab6f0b14f6550b9c7D43bARugUSbxqql2[] = {
/* columns rows colors chars-per-pixel */
"64 64 113 2 ",
"   c None",
".  c #323232",
"X  c gray20",
"o  c #3E3433",
"O  c #493634",
"+  c #543734",
"@  c #603935",
"#  c #684B38",
"$  c #684C38",
"%  c #694C39",
"&  c #725540",
"*  c #7B5E48",
"=  c #5A6C47",
"-  c #8D3F37",
";  c #984138",
":  c #AE4439",
">  c #C2473A",
",  c #C5473A",
"<  c #D94A3B",
"1  c #DB543F",
"2  c #E64B3B",
"3  c #E74C3C",
"4  c #85674F",
"5  c #8E7157",
"6  c #977A5E",
"7  c #B86C49",
"8  c #AD744C",
"9  c #CF5C42",
"0  c #E85543",
"q  c #E95A47",
"w  c #EA5E4A",
"e  c #ED7159",
"r  c #EE7A60",
"t  c #3CAC63",
"y  c #27B061",
"u  c #27B062",
"i  c #27B162",
"p  c #28B061",
"a  c #28B062",
"s  c #28B162",
"d  c #28B262",
"f  c #29B765",
"g  c #29B966",
"h  c #2ABB67",
"j  c #2ABC68",
"k  c #2BBE69",
"l  c #35B56B",
"z  c #4F8451",
"x  c #4B8C55",
"c  c #449C5C",
"v  c #76875D",
"b  c #7E9459",
"n  c #739C5D",
"m  c #40A45F",
"M  c #5CAC63",
"N  c #50B467",
"B  c #67A460",
"V  c #2BC06A",
"C  c #2BC16B",
"Z  c #2CC36C",
"A  c #2CC46C",
"S  c #2CC56D",
"D  c #2CC66E",
"F  c #2DC86F",
"G  c #2DCA70",
"H  c #2ECB70",
"J  c #2DCC70",
"K  c #2ECC70",
"L  c #2ECC71",
"P  c #3BCD75",
"I  c #48CE79",
"U  c #55CF7D",
"Y  c #57D07D",
"T  c #6DC97D",
"R  c #968453",
"E  c #A18366",
"W  c #AA8C6D",
"Q  c #B49675",
"!  c #BD9F7C",
"~  c #9CA970",
"^  c #84B977",
"/  c #CA8963",
"(  c #F08367",
")  c #F39676",
"_  c #F49F7D",
"`  c #5DC488",
"'  c #5DC489",
"]  c #62D181",
"[  c #78CE9C",
"{  c #C6A884",
"}  c #D0B18B",
"|  c #D9BB93",
" . c #89D48D",
".. c #96D691",
"X. c #A3D795",
"o. c #B0D899",
"O. c #93D8B0",
"+. c #E2C49A",
"@. c #FAC49B",
"#. c #CADBA1",
"$. c #D7DCA5",
"%. c #ECCDA2",
"&. c #E4DDA9",
"*. c #F5D6A9",
"=. c #FDD6A9",
"-. c #F1DEAD",
";. c #FFE0B0",
":. c #FFE1B0",
">. c #FFE0B1",
",. c #AEE1C4",
"<. c #BBE6CD",
"1. c #CAF2DB",
"2. c white",
/* pixels */
"                                                                                                                                ",
"                                                                                                                                ",
"                                                                                                                                ",
"                                                                                                                                ",
"                                                                                                                                ",
"                                                                                                                                ",
"                                                                                                                                ",
"                                                                                                                                ",
"                                        s s s s s s s s s s s s s s s s s s s s s s u                                           ",
"                                  s s s s s s s s s s s s s s s s s s s s s s s s s s s s                                       ",
"                              u s s s s s s s s s s s s s s s s s s s s s s s s s s s s s                                       ",
"                            u s s s s s s s s s s s s s s s s s s s s s s s s s s s s s s u                                     ",
"                          s s s s s s s s s s s s s s s s s s s s s s s s s s s s s s l ' '                                     ",
"                        s s s s s s s s s s s s s s s s s s s s s s s s s s s s s ' ,.2.2.2.                                    ",
"                      s s s s s s s s s s s s s s s s s s s s s s s s s s s s s O.2.2.2.2.2.                                    ",
"                      s s s s s s s s s s s s s s s s s s s s s s s s s s s s [ 2.2.2.2.2.2.                                    ",
"                    u s s s s s s s s s s s s s s s s s s s s s s s s s s s ' 2.2.2.2.2.2.2.                                    ",
"                    s s s s s s s s s s s s s s s s s s s s s s s s s s s s <.2.2.2.2.2.2.2.                                    ",
"                    s s s s s s s s s s s s s s s s s s s s s s s s s s s s 1.1.1.1.1.1.1.1.                                    ",
"                    s s s s s s s s s s s s s s s s s f f k k V S S L L L L L L L L L L L L L L L L L                           ",
"                    s s s s s s s s s s s f h V S G L L L L L L L L L L L L L L L L L L L L L L L L L L L                       ",
"                    s s s s s s f h Z F L L L L L L L L L L L L L L L L L L L L L L L L L L L L L L L L L L                     ",
"                    s s h k S L L L L L L L L L L L L L L L L L L L L L L L L L L L L L L L L L L L L L L G                     ",
"                    S F L L L L L L L L L L L L L L L L L L L L L L L L L L L L L L L L L L L L L L L                           ",
"                    L L L L L L L L L L L L L L L L L L L L U ] ] ]  .......o.#.#.#.$.>.>.                                      ",
"                      c t t t t t m x x x z = = = v >.>.>.>.>.>.>.>.>.>.>.>.>.>.>.>.>.>.>.                                      ",
"                      % % % % % % % % % % % % % % W >.>.>.>.>.>.>.>.>.>.>.>.>.>.>.>.>.>.>.                                      ",
"                      % % % % % % % % % % % % % % %.>.>.>.>.>.>.+.& % { >.>.>.>.>.>.>.>.>.                                      ",
"                      % % % % % % % 4 | >.>.>.| Q >.>.>.>.>.>.>.5 % % * >.>.>.>.>.>.>.>.>.                                      ",
"                      % % % % % % & %.>.>.>.>.>.>.>.>.>.>.>.>.>.% % % % >.>.>.>.>.>.>.>.>.                                      ",
"                      # % % % % % | >.>.>.>.>.>.>.>.>.>.>.>.>.>.% % % % >.>.>.>.>.>.>.>.>.                                      ",
"                      % % % % % % >.>.>.>.>.>.>.>.>.>.>.>.>.>.>.6 % % 4 >.>.>.>.>.>.>.>.>.>.>.                                  ",
"                      % % % % % % >.>.>.>.>.>.>.>.>.>.>.>.>.>.>.*.* % | >.>.>.>.>.>.>.>.>.>.>.>.                                ",
"                        % % % % % { >.>.>.>.>.>.>.>.>.>.>.>.>.>.>.>.>.>.>.%.! 6 5 5 & 6 +.>.>.>.                                ",
"                        % % % % % & %.>.>.>.>.>.>.>.>.>.>.>.>.>.>.>.>.>.} % % % % % % % * >.>.                                  ",
"                        % % % & E | >.>.>.>.>.>.>.>.>.>.>.>.>.>.>.>.>.| % % % % % % % % %                                       ",
"                        Q Q | >.>.>.>.>.>.>.>.>.>.>.>.>.>.>.>.>.>.>.>.* % % % % % % % % %                                       ",
"                        >.>.>.>.>.>.>.>.>.>.>.>.>.>.>.>.>.>.>.>.>.>.>.& % % % % % % % % %                                       ",
"                        >.>.>.>.>.>.>.>.>.>.>.>.>.>.>.>.>.>.>.>.>.>.>.%.Q 5 % % % % % % %                                       ",
"                          >.>.>.>.>.>.>.>.>.>.>.>.>.>.>.>.>.>.>.>.>.>.>.>.>.>.>.>.>.&.Y                                         ",
"                          q e e e ^ ] ] ] ] ] ] ] ] / e e e e e ~ ] ] ] ] ] ] ] ] ] P L                                         ",
"                          3 3 3 7 L L L L L L L L L M 3 3 3 3 3 1 B L L L L L L L L L L L                                       ",
"                          3 3 3 B ..>.>.>.-...P L L L 3 3 3 3 3 3 3 R L L L L L L L L L L                                       ",
"                        2 3 3 0 #.>.>.>.>.>.>.#.L L L 3 3 3 3 3 3 3 3 9 n L L L L L L L L                                       ",
"                        3 3 3 @.>.>.>.>.>.>.>.>.X.L N 3 3 3 3 3 3 3 3 3 3 3 8 b M L L L L                                       ",
"                        3 3 ( >.>.>.>.>.>.>.>.>.>.I R 3 3 3 3 3 3 3 3 3 3 3 3 3 3 3 3 3 3                                       ",
"                        3 3 ) >.>.>.>.>.>.>.>.>.>.T 1 3 3 3 3 3 3 3 3 3 3 3 3 3 3 3 3 3 3                                       ",
"                        < 3 ) >.>.>.>.>.>.>.>.>.>./ 3 3 3 3 3 3 3 3 3 3 3 3 3 3 3 3 3 3 3 >                                     ",
"                      . : 3 ( >.>.>.>.>.>.>.>.>.=.0 3 3 3 3 3 3 3 3 3 3 3 3 3 3 3 3 3 3 3 - . .                                 ",
"                    . . - 3 3 _ >.>.>.>.>.>.>.=.( 3 3 3 3 3 3 3 3 3 3 3 3 3 3 3 3 3 3 3 3 @ . . .                               ",
"                  . . . + 3 3 3 w r ) ) ) ) e 0 3 3 3 3 3 3 3 3 3 3 3 3 3 3 3 3 3 3 3 3 3 O . . .                               ",
"                  . . . . , 3 3 3 3 3 3 3 3 3 3 3 3 3 3 3 3 3 3 3 3 3 3 3 3 3 3 3 3 3 3 ; . . . .                               ",
"                    . . . O , 3 3 3 3 3 3 3 3 3 3 3 3 3 3 3 3 3 3 3 3 3 3 3 3 3 3 3 3 ; o . . .                                 ",
"                      . . . . . . . . . .                                   . . . . . . . . . .                                 ",
"                        . . . . . . . . .                                   . . . . . . . .                                     ",
"                          . . . . . . . .                                   . . . . . . .                                       ",
"                              . . . . .                                       . . . .                                           ",
"                                                                                                                                ",
"                                                                                                                                ",
"                                                                                                                                ",
"                                                                                                                                ",
"                                                                                                                                ",
"                                                                                                                                ",
"                                                                                                                                "
};
