/* XPM */
static char *result[] = {
/* columns rows colors chars-per-pixel */
"64 64 16 1 ",
"  c #1A5375",
". c #206891",
"X c #216992",
"o c #226A93",
"O c #236B94",
"+ c #236C95",
"@ c #246C96",
"# c #266F99",
"$ c #27709A",
"% c #28709B",
"& c #29719C",
"* c #2B74A0",
"= c #2B75A0",
"- c #2C74A0",
"; c #2C75A0",
": c None",
/* pixels */
":::::;--;;;;;;;;;;;;;;;;;;;;;;;;;;;;;;;;;;;;;;;;;;;;;;;;--;:::::",
":::;;;;;;;;;;;;;;;;;;;;;;;;;;;;;;;;;;;;;;;;;;;;;;;;;;;;;;;;;;:::",
":*;;&@OO................................................OO@&;;*:",
":;;@........................................................@;;:",
"=;$..........................................................$;=",
"=;o..........................................................o;=",
";;............................................................;;",
";;............................................................;;",
";;............................................................;;",
";;............................................................;;",
";;........                                            ........;;",
";;........                                            ........;;",
";;........                                            ........;;",
";;........                                            ........;;",
";;........                                            ........;;",
";;........     ....                          ....     ........;;",
";;........     ....                          ....     ........;;",
";;........     ....                          ....     ........;;",
";;........     ....                          ....     ........;;",
";;........                                            ........;;",
";;........                                            ........;;",
";;........                                            ........;;",
";;........                                            ........;;",
";;........                                            ........;;",
";;........                                            ........;;",
";;........                                            ........;;",
";;........                                            ........;;",
";;........                                            ........;;",
";;........                                            ........;;",
";;........                                            ........;;",
";;........                                            ........;;",
";;........                                            ........;;",
";;........                                            ........;;",
";;........                                            ........;;",
";;........                                            ........;;",
";;........                                            ........;;",
";;........                                            ........;;",
";;........                                            ........;;",
";;........                                            ........;;",
";;........                                            ........;;",
";;........                                            ........;;",
";;........                                            ........;;",
";;........                                            ........;;",
";;........                                            ........;;",
";;........                                            ........;;",
";;........     ....                          ....     ........;;",
";;........     ....                          ....     ........;;",
";;........     ....                          ....     ........;;",
";;........     ....                          ....     ........;;",
";;........                                            ........;;",
";;........                                            ........;;",
";;........                                            ........;;",
";;........                                            ........;;",
";;........                                            ........;;",
";;............................................................;;",
";;............................................................;;",
";;............................................................;;",
";;............................................................;;",
"-;+..........................................................+;-",
"*;%..........................................................%;*",
":;;@........................................................@;;:",
":*;;#X....................................................X#;;*:",
"::=;;;;;;;;;;;;;;;;;;;;;;;;;;;;;;;;;;;;;;;;;;;;;;;;;;;;;;;;;;=::",
"::::;;;;;;;;;;;;;;;;;;;;;;;;;;;;;;;;;;;;;;;;;;;;;;;;;;;;;;;;::::"
};
