/* XPM */
static char *_342fad16c874cdefb2a34edf22bf4a23wOZ7w94WRjt9weL[] = {
/* columns rows colors chars-per-pixel */
"64 64 104 2 ",
"   c None",
".  c #323232",
"X  c gray20",
"o  c #3E3433",
"O  c #4B3533",
"+  c #593733",
"@  c #6C3933",
"#  c #5C5C3F",
"$  c #694C39",
"%  c #64513B",
"&  c #60573D",
"*  c #725540",
"=  c #765A44",
"-  c #7B5E48",
";  c #586543",
":  c #546B45",
">  c #46794A",
",  c #7D6149",
"<  c #696154",
"1  c #803D36",
"2  c #8D3F37",
"3  c #9F4137",
"4  c #BA4539",
"5  c #BD4438",
"6  c #CD4335",
"7  c #D04435",
"8  c #D34536",
"9  c #D84638",
"0  c #DA4738",
"q  c #D0483A",
"w  c #DD4839",
"e  c #DB543F",
"r  c #E0493A",
"t  c #E64C3C",
"y  c #E74C3C",
"u  c #85674F",
"i  c #84684F",
"p  c #8E7157",
"a  c #A17C4F",
"s  c #CF5C42",
"d  c #D35644",
"f  c #E85543",
"g  c #C46445",
"h  c #CB6C57",
"j  c #EB6751",
"k  c #ED7159",
"l  c #EC7960",
"z  c #EE7A60",
"x  c #23A65A",
"c  c #24A65B",
"v  c #2CAA5F",
"b  c #27B061",
"n  c #27B062",
"m  c #28B061",
"M  c #28B162",
"N  c #408B52",
"B  c #739C5D",
"V  c #45BC6A",
"C  c #50B467",
"Z  c #67A460",
"A  c #39C46D",
"S  c #2DCC70",
"D  c #2ECC70",
"F  c #2ECC71",
"G  c #48CE79",
"H  c #55C072",
"J  c #8A8C56",
"K  c #A38557",
"L  c #A18366",
"P  c #AA8C6D",
"I  c #B49675",
"U  c #89B373",
"Y  c #90B173",
"T  c #E48B6B",
"R  c #F18C6F",
"E  c #E99B7A",
"W  c #F39676",
"Q  c #62D181",
"!  c #6FD285",
"~  c #C6A884",
"^  c #D0B18B",
"/  c #D7B692",
"(  c #D6BD92",
")  c #D6BC93",
"_  c #D7BC93",
"`  c #D7BD93",
"'  c #D9BB93",
"]  c #D5BD98",
"[  c #F6A885",
"{  c #8CD58D",
"}  c #E2C49A",
"|  c #EECC9E",
" . c #F5C299",
".. c #EBCEA2",
"X. c #FCCDA2",
"o. c #E4DDA9",
"O. c #F0D2A5",
"+. c #F2D5A7",
"@. c #F5D6A9",
"#. c #F5D7A9",
"$. c #FBD6A9",
"%. c #F1DEAD",
"&. c #FFE0B0",
"*. c #FFE0B1",
/* pixels */
"                                                                                                                                ",
"                                                                                                                                ",
"                                                                                                                                ",
"                                                                                                                                ",
"                                                                                                                                ",
"                                                                                                                                ",
"                                                                                                                                ",
"                                                n M M M M M M M M M M M M M M M                                                 ",
"                                    n M M M M M M M M M M M M M M M M M M M M M M M M M n M                                     ",
"                                n M M M M M M M M M M M M M M M M M M M M M M M M M M M M M M n                                 ",
"                              M M M M M M M M M M M M M M M M M M M M M M M M M M M M M M M M M M                               ",
"                            M M M M M M M M M M M M M M M M M M M M M M M M M M M M M M M M M M M M                             ",
"                            M M M M M M M M M M M M M M M M M M M M M M M M M M M M M M M M M M M M                             ",
"                            M M M M M M M M M M M M M M M M M M M M M M M M M M M M M M M M M M M M                             ",
"                            M M M M M M M M M M M M M M M M M M M M M M M M M M M M M M M M M M M M                             ",
"                            M M M M M M M M M M M M M M M M M M M M M M M M M M M M M M M M M M M M                             ",
"                            M M M M M M M M M M M M M M M M M M M M M M M M M M M M M M M M M M M M                             ",
"                            M M M M M M M M M M M M M M M M M M M M M M M M M M M M M M M M M M M M                             ",
"                            M M M M M M M M M M M M M M v N ; ; ; ; N v M M M M M M M M M M M M M M                             ",
"                            M M M M M M M M M M M M M M : $ $ $ $ $ $ : M M M M M M M M M M M M M M                             ",
"                            c c c c c c c c c c c c c > $ $ $ $ $ $ $ $ > c c c c c c c c c c c c c                             ",
"                            c c c c c c c c c c c c c % $ $ $ $ $ $ $ $ % c c c c c c c c c c c c c                             ",
"                            c c c c c c c c c c c c c # $ $ $ $ $ $ $ $ & c c c c c c c c c c c c c                             ",
"                            x c c c c c c c c c c c c c c c c c c c c c c c c c c c c c c c c c c x                             ",
"                              c c c c c c c c c c c c c c c c c c c c c c c c c c c c c c c c c c                               ",
"                              $ $ $ $ $ $ $ $ $ $ $ $ $ $ $ $ $ $ $ $ $ $ $ $ $ $ $ $ $ $ $ $ $ $                               ",
"                              $ $ $ $ $ $ $ $ $ $ $ $ $ $ $ $ $ $ $ $ $ $ $ $ $ $ $ $ $ $ $ $ $ $                               ",
"                          ` ` $ $ $ $ $ $ $ $ $ $ $ $ $ $ $ $ $ $ $ $ $ $ $ $ $ $ $ $ $ $ $ $ $ $ ` `                           ",
"                        ` ` ` $ $ $ $ $ $ $ $ $ $ $ $ $ $ $ $ $ $ $ $ $ $ $ $ $ $ $ $ $ $ $ $ $ $ ` ` `                         ",
"                      ` ` ` ` $ $ $ $ $ $ $ $ $ $ $ $ $ $ $ $ $ $ $ $ $ $ $ $ $ $ $ $ $ $ $ $ $ $ ` ` ` `                       ",
"                      ` ` ` ` $ $ $ $ $ $ $ $ $ $ $ $ $ $ $ $ $ $ $ $ $ $ $ $ $ $ $ $ $ $ $ $ $ $ ` ` ` `                       ",
"                      ` ` ` ` , $ $ $ $ $ $ $ $ $ $ $ $ $ $ $ $ $ $ $ $ $ $ $ $ $ $ $ $ $ $ $ $ = ` ` ` `                       ",
"                      ` ` ` ` i $ $ $ $ $ $ $ $ $ $ $ $ $ $ $ $ $ $ $ $ $ $ $ $ $ $ $ $ $ $ $ $ i ` ` ` `                       ",
"                        ` ` ` +.} ' I p $ $ $ $ $ $ $ $ $ $ $ $ $ $ $ $ $ $ $ $ $ $ $ $ u I ' } @.` ` `                         ",
"                          ` ` ..*.*.*.*.*.' ^ P p p - $ $ $ $ $ $ $ $ $ $ * p p L ~ ' @.*.*.*.*.O.` `                           ",
"                                *.*.*.*.*.*.*.*.*.*.*.*.*.*.*.*.*.*.*.*.*.*.*.*.*.*.*.*.*.*.*.*.                                ",
"                                *.*.*.*.*.*.*.*.*.*.*.*.*.*.*.*.*.*.*.*.*.*.*.*.*.*.*.*.*.*.*.*.                                ",
"                                *.*.*.*.*.*.*.*.*.*.*.*.*.*.*.*.*.*.*.*.*.*.*.*.*.*.*.*.*.*.*.*.                                ",
"                                *.*.*.*.*.*.*.*.*.*.*.*.*.*.*.*.*.*.*.*.*.*.*.*.*.*.*.*.*.*.*.*.                                ",
"                              S H X.*.*.*.*.*.*.*.*.*.*.*.*.*.*.*.*.*.*.*.*.*.*.*.*.*.*.*.*.X.U S                               ",
"                            S S S K k k k k k k Y Q Q Q Q Q Q Q Q Q Q Q Q Q Q Y k k k k k k f a S S                             ",
"                          S S S S S J y y y y y s A S S S S S S S S S S S S A s y y y y y y y y V S S                           ",
"                        S S S S Q Q G B e y y y y s C S S S S S S S S S S C s y y y y y y y y y B S S S                         ",
"                        S S ! %.*.*.*.*.| j y y y y y g Z A S S S S A Z g y y y y y y y y y y y T ! S S                         ",
"                        S ! *.*.*.*.*.*.*.X.y y y y y y y y y y y y y y y y y y y y y y y y y y k *.! S                         ",
"                        S o.*.*.*.*.*.*.*.*.y y y y y y y y y y y y y y y y y y y y y y y y y y k *.o.S                         ",
"                        { *.*.*.*.*.*.*.*.*.8 8 8 8 y y y y y y y y y y y y 8 8 8 8 8 8 w y y y k *.*.{                         ",
"                          *.*.*.*.*.*.*.*. .6 6 6 6 y y y y y y y y y y y y 6 6 6 6 6 6 9 y y y k *.*.                          ",
"                          *.*.*.*.*.*.*.*.E 6 6 6 8 y y y y y y y y y y y y 8 6 6 6 6 6 w y y y l *.*.                          ",
"                          *.*.*.*.*.*.*.$.d 6 6 6 w y y y y y y y y y y y y 5 @ + + + + 1 q y y W *.*.                          ",
"                          *.*.*.*.*.*.*.l 9 8 8 r y y y y y y y y y y y y 2 X X X X X X X X 4 y X.*.*.                          ",
"                            *.*.*.*.*.[ y y y y y y y y y             y 3 X X X X X X X X X o h *.*.                            ",
"                              *.] / R y y y y y y y 2 O                 X X X X X X X X X X X < *.                              ",
"                                X X X X X X X X X X X X                 X X X X X X X X X X X X                                 ",
"                                X X X X X X X X X X X X                 X X X X X X X X X X X X                                 ",
"                                  X X X X X X X X X X X                 X X X X X X X X X X X                                   ",
"                                      X X X X X X X                         X X X X X X X                                       ",
"                                                                                                                                ",
"                                                                                                                                ",
"                                                                                                                                ",
"                                                                                                                                ",
"                                                                                                                                ",
"                                                                                                                                ",
"                                                                                                                                "
};
