/* XPM */
static char *result[] = {
/* columns rows colors chars-per-pixel */
"64 64 31 1 ",
"  c #C64032",
". c #C84032",
"X c #CC4233",
"o c #CD4334",
"O c #D34535",
"+ c #D44536",
"@ c #D64636",
"# c #DC4838",
"$ c #DF4939",
"% c #E64B3B",
"& c #E74C3C",
"* c #E84C3C",
"= c #EB4D3D",
"- c #EC4D3C",
"; c #ED4D3D",
": c #F04E3E",
"> c #F14F3E",
", c #F24F3E",
"< c #F34F3F",
"1 c #F44F3F",
"2 c #F75040",
"3 c #F95140",
"4 c #FA5140",
"5 c #FB5241",
"6 c #FF5241",
"7 c #FF5341",
"8 c #FF5242",
"9 c #FF5342",
"0 c #758C8E",
"q c #819A9C",
"w c None",
/* pixels */
"wwwww976999999999999999999999999999999999999999999999999679wwwww",
"www69999999999999999999999999999999999999999999999999999999998ww",
"ww993>;*&&&&&&&&&&&&&&&&&&&&&&&&&&&&&&&&&&&&&&&&&&&&&&&&*;>299ww",
"w99:&&&&&&&&&&&&&&&&&&&&&&&&&&&&&&&&&&&&&&&&&&&&&&&&&&&&&&&&=96w",
"892&&&&&&&&&&&&&&&&&&&&&&&&&&&&&&&&&&&&&&&&&&&&&&&&&&&&&&&&&&19w",
"79;&&&&&&&&&&&&&&&&&&&&&&&&&&&&&&&&&&&&&&&&&&&&&&&&&&&&&&&&&&;99",
"69=&&&+                                                  X&&&*96",
"99&&&&.                                                   &&&&99",
"99&&&&                                                    &&&&99",
"99&&&&                                                    &&&&99",
"99&&&&                                                    &&&&99",
"99&&&&                                                    &&&&99",
"99&&&&                                                    &&&&99",
"99&&&&                                                    &&&&99",
"99&&&&                                                    &&&&99",
"99&&&&                                                    &&&&99",
"99&&&&                                                    &&&&99",
"99&&&&                                                    &&&&99",
"99&&&&                                                    &&&&99",
"99&&&&                                                    &&&&99",
"99&&&&                                                    &&&&99",
"99&&&&                                                    &&&&99",
"99&&&&                                                    &&&&99",
"99&&&&                                                    &&&&99",
"99&&&&                                                    &&&&99",
"99&&&&                                                    &&&&99",
"99&&&&                                                    &&&&99",
"99&&&&                                                    &&&&99",
"99&&&&                                                    &&&&99",
"99&&&&                                                    &&&&99",
"99&&&&                                                    &&&&99",
"99&&&&                                                    &&&&99",
"99&&&&                                                    &&&&99",
"99&&&&                                                    &&&&99",
"99&&&&&&&&&&&&&&&&&&&&&&&&&&&&&&&&&&&&&&&&&&&&&&&&&&&&&&&&&&&&99",
"99&&&&&&&&&&&&&&&&&&&&&&&&&&&&&&&&&&&&&&&&&&&&&&&&&&&&&&&&&&&&99",
"99&&&&&&&&&&&&&&&&&&&&&&&&&&&&&&&&&&&&&&&&&&&&&&&&&&&&&&&&&&&&99",
"994<*&&&&&&&&&&&&&&&&&&&&&&&&&&&&&&&&&&&&&&&&&&&&&&&&&&&&&&*<499",
"9999999999999999999999999999999999999999999999999999999999999999",
"99@%59999999999999999999999999999999999999999999999999999995%@99",
"99ooooooooooooooooooooooooooooo00ooooooooooooooooooooooooooooo99",
"99ooooooooooooooooooooooooooooo00ooooooooooooooooooooooooooooo99",
"99ooooooooooooooooooooooooooooo00ooooooooooooooooooooooooooooo99",
"99ooooooooooooooooooooooooooooo00ooooooooooooooooooooooooooooo99",
"99ooooooooooooooooooooooooooooo00ooooooooooooooooooooooooooooo99",
"99ooooooooooooooooooooooooooooo00ooooooooooooooooooooooooooooo99",
"99ooooooooooooooooooooooooooooo00ooooooooooooooooooooooooooooo99",
"99ooooooooooooooooooooooooooooo00ooooooooooooooooooooooooooooo99",
"99ooooooooooooooooooooooooooooo00ooooooooooooooooooooooooooooo99",
"00qqqqqqqqqqqqqqqqqqqqqqqqqqqqqqqqqqqqqqqqqqqqqqqqqqqqqqqqqqqq00",
"00qqqqqqqqqqqqqqqqqqqqqqqqqqqqqqqqqqqqqqqqqqqqqqqqqqqqqqqqqqqq00",
"99ooooooooooooo00oooooooooooooooooooooooooooooo00ooooooooooooo99",
"99ooooooooooooo00oooooooooooooooooooooooooooooo00ooooooooooooo99",
"99ooooooooooooo00oooooooooooooooooooooooooooooo00ooooooooooooo99",
"99ooooooooooooo00oooooooooooooooooooooooooooooo00ooooooooooooo99",
"99ooooooooooooo00oooooooooooooooooooooooooooooo00ooooooooooooo99",
"99ooooooooooooo00oooooooooooooooooooooooooooooo00ooooooooooooo99",
"99Ooooooooooooo00oooooooooooooooooooooooooooooo00ooooooooooooO99",
"79#oooooooooooo00oooooooooooooooooooooooooooooo00oooooooooooo#97",
"89,oooooooooooo00oooooooooooooooooooooooooooooo00oooooooooooo,98",
"w99$ooooooooooo00oooooooooooooooooooooooooooooo00ooooooooooo$99w",
"ww99-Oooooooooo00oooooooooooooooooooooooooooooo00oooooooooO-99ww",
"ww899999999999900999999999999999999999999999999009999999999998ww",
"wwww99999999999009999999999999999999999999999990099999999999wwww"
};
